<svg height="445.796pt" viewBox="0 0 445.796 445.796" width="445.796pt" xmlns="http://www.w3.org/2000/svg" xmlns:xlink="http://www.w3.org/1999/xlink"><linearGradient id="linear0" gradientUnits="userSpaceOnUse" x1="109.792" x2="336.64" y1="109.796" y2="336.64"><stop offset="0" stop-color="#ffca6c"/><stop offset="1" stop-color="#ff654f"/></linearGradient><path d="m147.671875 152.144531c-2.972656-3.269531-2.734375-8.328125.53125-11.300781 2.402344-2.195312 4.945313-4.308594 7.535156-6.28125 3.519531-2.675781 8.539063-1.992188 11.214844 1.523438 2.675781 3.515624 1.996094 8.539062-1.519531 11.214843-2.222656 1.691407-4.402344 3.503907-6.460938 5.382813-3.269531 2.972656-8.328125 2.734375-11.300781-.53125zm290.128906 62.753907h-53.542969c-4.214843-82.886719-70.46875-149.140626-153.359374-153.355469v-53.542969c0-4.417969-3.582032-8-8-8-4.417969 0-8 3.582031-8 8v104.246094c-11.390626.796875-22.59375 3.359375-33.199219 7.601562-4.101563 1.640625-6.097657 6.296875-4.457031 10.398438 1.644531 4.105468 6.300781 6.097656 10.402343 4.457031 43.949219-17.578125 94.132813-.125 117.691407 40.933594 23.554687 41.054687 13.292968 93.191406-24.066407 122.257812-37.359375 29.066407-90.414062 26.199219-124.421875-6.726562-34.007812-32.925781-38.589844-85.859375-10.746094-124.140625 1.757813-2.304688 2.132813-5.382813.976563-8.042969s-3.660156-4.488281-6.546875-4.773437c-2.890625-.285157-5.703125 1.015624-7.359375 3.398437-13.890625 19.058594-20.925781 48-20.925781 57.289063h-104.246094c-4.417969 0-8 3.582031-8 8 0 4.417968 3.582031 8 8 8h53.542969c4.214843 82.890624 70.46875 149.144531 153.355469 153.359374v53.539063c0 4.417969 3.582031 8 8 8 4.417968 0 8-3.582031 8-8v-53.554687c34.6875-1.730469 67.894531-14.578126 94.71875-36.636719 3.40625-2.8125 3.890624-7.855469 1.082031-11.261719-2.8125-3.410156-7.855469-3.894531-11.261719-1.082031-26.046875 21.425781-58.714844 33.160156-92.441406 33.199219h-.1875c-77.210938-.140626-140.917969-60.472657-145.253906-137.5625h34.664062c.046875.597656.121094 1.203124.171875 1.78125 5.167969 58.523437 55.054687 102.875 113.777344 101.152343 58.722656-1.722656 105.925781-48.925781 107.652343-107.648437 1.722657-58.722656-42.625-108.613282-101.148437-113.78125-.59375-.050782-1.199219-.125-1.777344-.171875v-34.675781c77.089844 4.339843 137.417969 68.042968 137.558594 145.253906v.1875c-.039063 33.738281-11.78125 66.417968-33.222656 92.46875-2.8125 3.40625-2.328125 8.449218 1.082031 11.261718 3.40625 2.8125 8.453125 2.332032 11.261719-1.078124 22.078125-26.828126 34.933593-60.046876 36.664062-94.75h53.558594c4.417969 0 8-3.582032 8-8 0-4.417969-3.582031-8-8-8zm-215.277343 33.480468c-8.402344-.027344-16.445313-3.417968-22.339844-9.410156l-12.300782 14.179688c9.296876 9.730468 22.328126 14.988281 35.773438 14.4375 20.832031 0 34.265625-10.800782 34.265625-26 0-11.046876-8.285156-17.824219-17.820313-20.082032 9.265626-2.03125 15.886719-10.214844 15.933594-19.703125 0-13.558593-12.171875-23.601562-32.503906-23.601562-13.054688-.402344-25.5625 5.25-33.886719 15.3125l12.054688 13.074219c5.015625-5.578126 12.082031-8.886719 19.578125-9.160157 7.777344 0 12.925781 3.136719 12.925781 8.398438 0 5.019531-4.644531 7.90625-13.304687 7.78125h-10.171876v18.09375l10.164063-.128907c10.917969 0 15.0625 2.761719 15.0625 8.160157 0 5.007812-4.769531 8.648437-13.429687 8.648437zm0 0" fill="url(#linear0)"/></svg>