<svg height="512pt" viewBox="0 -44 512 512" width="512pt" xmlns="http://www.w3.org/2000/svg"><path d="m379.992188 211.59375h132.007812v105.796875h-132.007812zm0 0" fill="#695d67"/><path d="m379.992188 211.59375h34.914062v105.796875h-34.914062zm0 0" fill="#544e55"/><path d="m499.351562 423.1875h-119.359374v-105.796875h132.007812v93.53125c0 6.746094-5.691406 12.265625-12.648438 12.265625zm0 0" fill="#544e55"/><path d="m379.992188 317.390625h34.914062v105.792969h-34.914062zm0 0" fill="#453f46"/><path d="m379.992188 105.796875h132.007812v105.796875h-132.007812zm0 0" fill="#4f67d2"/><path d="m379.992188 105.796875h34.914062v105.796875h-34.914062zm0 0" fill="#324ccc"/><path d="m499.351562 0h-119.359374v105.796875h132.007812v-93.53125c0-6.746094-5.691406-12.265625-12.648438-12.265625zm0 0" fill="#6c7ed6"/><path d="m379.992188 0h34.914062v105.796875h-34.914062zm0 0" fill="#4f67d2"/><path d="m128 211.59375h133.265625v105.796875h-133.265625zm0 0" fill="#fee55a"/><path d="m123.992188 211.59375h34.914062v105.796875h-34.914062zm0 0" fill="#ffd301"/><path d="m128 317.390625h133.265625v105.792969h-133.265625zm0 0" fill="#ffd301"/><path d="m123.992188 317.390625h34.914062v105.792969h-34.914062zm0 0" fill="#ffc20c"/><path d="m0 211.59375h128v105.796875h-128zm0 0" fill="#ffa85d"/><path d="m0 211.59375h30.90625v105.796875h-30.90625zm0 0" fill="#ff9839"/><path d="m12.265625 423.1875h115.734375v-105.796875h-128v93.53125c0 6.746094 5.519531 12.265625 12.265625 12.265625zm0 0" fill="#ff9839"/><path d="m30.90625 317.390625h-30.90625v93.53125c0 6.746094 5.519531 12.265625 12.265625 12.265625h18.640625zm0 0" fill="#ff8607"/><path d="m256 211.59375h128v105.796875h-128zm0 0" fill="#23a8fe"/><path d="m256 211.59375h30.90625v105.796875h-30.90625zm0 0" fill="#0492fe"/><path d="m256 317.390625h128v105.792969h-128zm0 0" fill="#0492fe"/><path d="m256 317.390625h30.90625v105.792969h-30.90625zm0 0" fill="#0083fe"/><path d="m128 105.796875h133.265625v105.796875h-133.265625zm0 0" fill="#00ba66"/><path d="m123.992188 105.796875h34.914062v105.796875h-34.914062zm0 0" fill="#01a755"/><path d="m128 0h133.265625v105.796875h-133.265625zm0 0" fill="#43cb8e"/><path d="m123.992188 0h34.914062v105.796875h-34.914062zm0 0" fill="#00ba66"/><path d="m0 105.796875h128v105.796875h-128zm0 0" fill="#ff4756"/><path d="m0 105.796875h30.90625v105.796875h-30.90625zm0 0" fill="#fc2d39"/><path d="m12.265625 0h115.734375v105.796875h-128v-93.53125c0-6.746094 5.519531-12.265625 12.265625-12.265625zm0 0" fill="#ff656f"/><path d="m30.90625 0h-18.640625c-6.746094 0-12.265625 5.519531-12.265625 12.265625v93.53125h30.90625zm0 0" fill="#ff4756"/><path d="m256 105.796875h128v105.796875h-128zm0 0" fill="#60b8fe"/><path d="m256 105.796875h30.90625v105.796875h-30.90625zm0 0" fill="#23a8fe"/><path d="m256 0h128v105.796875h-128zm0 0" fill="#8cc9f9"/><path d="m256 0h30.90625v105.796875h-30.90625zm0 0" fill="#60b8fe"/></svg>