<svg enable-background="new 0 0 140 140" height="512" viewBox="0 0 140 140" width="512" xmlns="http://www.w3.org/2000/svg"><circle cx="70" cy="70" fill="#4da0dc" r="64"/><path d="m97.3921814 37.3257294 36.4899902 36.4799805c-1.8699951 31.8203125-26.9799805 57.3701172-58.5999756 59.9599609l-30.1600304-30.159668c-.3299561-.3203125-.5999756-.6801758-.8399658-1.0703125l-6.2900391-6.2900391v-3h5.3400269l-5.3400269-5.3398438v-3h5.3400269l-5.3400269-5.3398438v-3h5.3400269l-5.3400269-5.340332v-3h5.3400269l-5.3400269-5.3398438v-3h5.3400269l-5.3400269-5.3398438v-3h5.3500366l-5.3500366-5.3500977v-2.9902344h5.5700073v-3.1899414c0-2.7597656 2.2300415-4.9897461 4.9899902-4.9897461h44.6500208c1.7600097.0000003 3.3099975.9199222 4.1900024 2.299805z" opacity=".1"/><path d="m100.6766129 47.098671h-3.4616699c-.7354736 0-1.331665.5961914-1.331665 1.331543v7.6879883c0 .7358398.5961914 1.3320312 1.331665 1.3320312h3.4616699c.7354736 0 1.331665-.5961914 1.331665-1.3320312v-7.6879883c0-.7353516-.5961914-1.331543-1.331665-1.331543z" fill="#de594e"/><path d="m100.6766129 58.9157028h-3.4616699c-.7354736 0-1.331665.5961914-1.331665 1.331543v7.6879883c0 .7358398.5961914 1.3320312 1.331665 1.3320312h3.4616699c.7354736 0 1.331665-.5961914 1.331665-1.3320312v-7.6879883c0-.7353516-.5961914-1.331543-1.331665-1.331543z" fill="#feda6f"/><path d="m100.6766129 70.7327347h-3.4616699c-.7354736 0-1.331665.5961914-1.331665 1.331543v7.6879883c0 .7358398.5961914 1.3320312 1.331665 1.3320312h3.4616699c.7354736 0 1.331665-.5961914 1.331665-1.3320312v-7.6879883c0-.7353516-.5961914-1.331543-1.331665-1.331543z" fill="#dbd8dd"/><path d="m100.6766129 82.5497665h-3.4616699c-.7354736 0-1.331665.5961914-1.331665 1.331543v7.6879883c0 .7358398.5961914 1.3320312 1.331665 1.3320312h3.4616699c.7354736 0 1.331665-.5961914 1.331665-1.3320312v-7.6879883c0-.7353516-.5961914-1.331543-1.331665-1.331543z" fill="#fb7833"/><path d="m93.1990128 35.0222168h-44.6467896c-2.7572632 0-4.9924927 2.2353516-4.9924927 4.9926758v59.9702148c0 2.7573242 2.2352295 4.9926758 4.9924927 4.9926758h44.6467896c2.7572632 0 4.9924927-2.2353516 4.9924927-4.9926758v-59.9702148c-.0000001-2.7573242-2.2352296-4.9926758-4.9924927-4.9926758z" fill="#ededed"/><g fill="#344d5b"><path d="m37.991722 43.20414h9.988299v2.99649h-9.988299z"/><path d="m37.991722 51.544758h9.988299v2.99649h-9.988299z"/><path d="m37.991722 59.88538h9.988299v2.99649h-9.988299z"/><path d="m37.991722 68.225998h9.988299v2.99649h-9.988299z"/><path d="m37.991722 76.56662h9.988299v2.99649h-9.988299z"/><path d="m37.991722 84.907242h9.988299v2.99649h-9.988299z"/><path d="m37.991722 93.247856h9.988299v2.99649h-9.988299z"/></g><path d="m86.8653793 78.706749c-1.5610809-1.9359894-6.4802017-5.4635544-7.9020538-4.6104279-1.1617355.701828-1.5489731 1.7062454-1.6699982 2.2145538-.054512.1875153-.060463.3023911-.060463.3023911-.0242157.0242157-.0605621.0606384-.1149979.0908508-.3872147.3145981-1.440033.9679947-1.440033.9679947-1.4037399.6171799-1.7002182-.3205948-1.7002182-.3205948l-4.7731323-4.7731323-.0430984-.0432281-4.7731628-4.7729263s-.9378738-.2965851-.3206406-1.7002487c0 0 .65345-1.0528412.9680634-1.4400787.0006256-.0012054.0013504-.0018005.001976-.0028076.00103.0024033.0024796.005806.003479.0082092.03022-.0544357.0665665-.0906601.0907822-.1150742 0 0 .1148987-.0057983.3024826-.0604324-.0007477-.0018005-.0018463-.0044022-.0026016-.0062027.5091171-.1216812 1.5110092-.5093155 2.2117081-1.6692276.8530502-1.421875-2.6744156-6.3408966-4.6105537-7.9020538-.4054222-.3326035-.9741745-.4294624-1.4642487-.2297401-.4356689.1693039-.9620171.5021057-1.3917046 1.1374969-.0543594.0784492-.1028404.1632996-.1572723.254158 0 0-.036274.0362206-.1028862.1028633-.6171074.6169777-3.7271423 3.8963928-2.9647713 6.3651085 0 0 2.6153793 6.8782234 8.7807693 13.4596672l-.0021286.0021973c.0075302.0070038.0150299.0132065.0226364.0204163.0070038.0076065.0133591.015007.020462.0226135l.0021286-.0022049c6.5813904 6.16539 13.4596405 8.7807922 13.4596405 8.7807922 2.4679947.7622681 5.7461014-2.3458405 6.3645325-2.9640198.0020523.0016022.0040512.003006.0061035.0048065.0666428-.0666428.10289-.1028671.10289-.1028671.0907822-.0544281.1755295-.1030579.2541275-.1572952-.0020981-.0018005-.0041733-.0034027-.0062714-.0050049.0002441-.0001984.0005493-.0003967.0007935-.0005951.6353912-.4296646.9681702-.955986 1.1375504-1.391655.199646-.4901047.1028672-1.0588532-.2298889-1.4643021z" fill="#467082"/></svg>