<svg height="512pt" viewBox="-24 0 512 512.001" width="512pt" xmlns="http://www.w3.org/2000/svg"><path d="m412.746094 327.550781h-360.519532c-28.796874 0-52.226562 23.429688-52.226562 52.226563v79.996094c0 28.796874 23.429688 52.226562 52.226562 52.226562h360.519532c28.800781 0 52.230468-23.429688 52.230468-52.226562v-79.996094c-.003906-28.796875-23.433593-52.226563-52.230468-52.226563zm0 0" fill="#e0f4ff"/><path d="m412.746094 327.550781h-180.257813v184.449219h180.257813c28.800781 0 52.230468-23.429688 52.230468-52.226562v-79.996094c-.003906-28.796875-23.433593-52.226563-52.230468-52.226563zm0 0" fill="#bbdcff"/><path d="m412.746094 327.550781h-360.519532c-28.796874 0-52.226562 23.429688-52.226562 52.226563v79.996094c0 28.796874 23.429688 52.226562 52.226562 52.226562h360.519532c28.800781 0 52.230468-23.429688 52.230468-52.226562v-79.996094c-.003906-28.796875-23.433593-52.226563-52.230468-52.226563zm-289.773438 101.203125-3.917968 1.273438 2.421874 3.332031c4.871094 6.703125 3.382813 16.085937-3.320312 20.957031-2.660156 1.933594-5.75 2.867188-8.804688 2.867188-4.640624 0-9.214843-2.144532-12.152343-6.1875l-2.417969-3.332032-2.421875 3.332032c-2.933594 4.042968-7.507813 6.1875-12.148437 6.1875-3.058594 0-6.144532-.933594-8.804688-2.867188-6.707031-4.871094-8.191406-14.253906-3.320312-20.957031l2.417968-3.332031-3.914062-1.273438c-7.878906-2.558594-12.191406-11.023437-9.632813-18.902344 2.5625-7.882812 11.023438-12.195312 18.90625-9.632812l3.914063 1.269531v-4.113281c0-8.285156 6.71875-15.003906 15.003906-15.003906s15.003906 6.71875 15.003906 15.003906v4.113281l3.914063-1.269531c7.882812-2.5625 16.34375 1.75 18.90625 9.632812 2.558593 7.878907-1.753907 16.34375-9.632813 18.902344zm91.804688 0-3.917969 1.273438 2.421875 3.332031c4.871094 6.703125 3.382812 16.085937-3.320312 20.957031-2.660157 1.933594-5.75 2.867188-8.804688 2.867188-4.640625 0-9.214844-2.144532-12.152344-6.1875l-2.417968-3.328125-2.421876 3.328125c-2.933593 4.042968-7.507812 6.1875-12.148437 6.1875-3.058594 0-6.144531-.933594-8.804687-2.867188-6.707032-4.871094-8.191407-14.253906-3.320313-20.957031l2.417969-3.332031-3.914063-1.273438c-7.878906-2.558594-12.191406-11.023437-9.632812-18.902344 2.5625-7.882812 11.023437-12.195312 18.90625-9.632812l3.914062 1.269531v-4.113281c0-8.285156 6.71875-15.003906 15.003907-15.003906 8.285156 0 15.003906 6.71875 15.003906 15.003906v4.113281l3.914062-1.269531c7.882813-2.5625 16.347656 1.75 18.90625 9.632812 2.558594 7.878907-1.753906 16.34375-9.632812 18.902344zm91.804687 0-3.917969 1.273438 2.421876 3.332031c4.871093 6.703125 3.382812 16.085937-3.320313 20.957031-2.660156 1.933594-5.75 2.867188-8.804687 2.867188-4.640626 0-9.214844-2.144532-12.152344-6.1875l-2.417969-3.328125-2.421875 3.328125c-2.933594 4.042968-7.507812 6.1875-12.148438 6.1875-3.058593 0-6.144531-.933594-8.804687-2.867188-6.707031-4.871094-8.191406-14.253906-3.320313-20.957031l2.417969-3.332031-3.914062-1.273438c-7.878907-2.558594-12.191407-11.023437-9.632813-18.902344 2.5625-7.882812 11.023438-12.195312 18.90625-9.632812l3.914063 1.269531v-4.113281c0-8.285156 6.71875-15.003906 15.003906-15.003906s15.003906 6.71875 15.003906 15.003906v4.113281l3.914063-1.269531c7.882812-2.5625 16.34375 1.75 18.90625 9.632812 2.558594 7.878907-1.753906 16.34375-9.632813 18.902344zm91.804688 0-3.914063 1.273438 2.417969 3.332031c4.871094 6.703125 3.386719 16.085937-3.320313 20.957031-2.660156 1.933594-5.746093 2.867188-8.804687 2.867188-4.640625 0-9.214844-2.144532-12.152344-6.1875l-2.417969-3.332032-2.417968 3.332032c-2.9375 4.042968-7.511719 6.1875-12.152344 6.1875-3.054688 0-6.140625-.933594-8.804688-2.867188-6.703124-4.871094-8.191406-14.253906-3.320312-20.957031l2.421875-3.332031-3.917969-1.273438c-7.878906-2.558594-12.191406-11.023437-9.628906-18.902344 2.558594-7.882812 11.023438-12.195312 18.902344-9.632812l3.914062 1.269531v-4.113281c0-8.285156 6.71875-15.003906 15.003906-15.003906 8.289063 0 15.003907 6.71875 15.003907 15.003906v4.113281l3.914062-1.269531c7.882813-2.5625 16.347657 1.75 18.90625 9.632812 2.5625 7.878907-1.753906 16.34375-9.632812 18.902344zm0 0" fill="#47568c"/><path d="m412.746094 327.550781h-180.257813v184.449219h180.257813c28.800781 0 52.230468-23.429688 52.230468-52.226562v-79.996094c-.003906-28.796875-23.433593-52.226563-52.230468-52.226563zm-106.164063 101.203125-3.917969 1.273438 2.421876 3.332031c4.871093 6.703125 3.382812 16.085937-3.320313 20.957031-2.660156 1.933594-5.75 2.867188-8.804687 2.867188-4.640626 0-9.214844-2.144532-12.152344-6.1875l-2.417969-3.328125-2.421875 3.328125c-2.933594 4.042968-7.507812 6.1875-12.148438 6.1875-3.058593 0-6.144531-.933594-8.804687-2.867188-6.707031-4.871094-8.191406-14.253906-3.320313-20.957031l2.417969-3.332031-3.914062-1.273438c-7.878907-2.558594-12.191407-11.023437-9.632813-18.902344 2.5625-7.882812 11.023438-12.195312 18.90625-9.632812l3.914063 1.269531v-4.113281c0-8.285156 6.71875-15.003906 15.003906-15.003906s15.003906 6.71875 15.003906 15.003906v4.113281l3.914063-1.269531c7.882812-2.5625 16.34375 1.75 18.90625 9.632812 2.558594 7.878907-1.753906 16.34375-9.632813 18.902344zm91.804688 0-3.914063 1.273438 2.417969 3.332031c4.871094 6.703125 3.386719 16.085937-3.320313 20.957031-2.660156 1.933594-5.746093 2.867188-8.804687 2.867188-4.640625 0-9.214844-2.144532-12.152344-6.1875l-2.417969-3.332032-2.417968 3.332032c-2.9375 4.042968-7.511719 6.1875-12.152344 6.1875-3.054688 0-6.140625-.933594-8.804688-2.867188-6.703124-4.871094-8.191406-14.253906-3.320312-20.957031l2.421875-3.332031-3.917969-1.273438c-7.878906-2.558594-12.191406-11.023437-9.628906-18.902344 2.558594-7.882812 11.023438-12.195312 18.902344-9.632812l3.914062 1.269531v-4.113281c0-8.285156 6.71875-15.003906 15.003906-15.003906 8.289063 0 15.003907 6.71875 15.003907 15.003906v4.113281l3.914062-1.269531c7.882813-2.5625 16.347657 1.75 18.90625 9.632812 2.5625 7.878907-1.753906 16.34375-9.632812 18.902344zm0 0" fill="#2c3b73"/><path d="m288.542969 133.410156c-8.289063 0-15.003907-6.71875-15.003907-15.003906v-47.347656c0-22.636719-18.417968-41.050782-41.050781-41.050782-22.636719 0-41.050781 18.414063-41.050781 41.050782v47.347656c0 8.285156-6.71875 15.003906-15.003906 15.003906s-15.003906-6.71875-15.003906-15.003906v-47.347656c0-39.183594 31.875-71.058594 71.058593-71.058594 39.179688 0 71.054688 31.875 71.054688 71.058594v47.347656c0 8.285156-6.714844 15.003906-15 15.003906zm0 0" fill="#e0f4ff"/><path d="m232.488281 0v30.007812c22.632813 0 41.050781 18.414063 41.050781 41.050782v47.347656c0 8.285156 6.714844 15.003906 15.003907 15.003906 8.285156 0 15-6.71875 15-15.003906v-47.347656c0-39.183594-31.875-71.058594-71.054688-71.058594zm0 0" fill="#bbdcff"/><path d="m306.25 103.402344h-147.523438c-19.082031 0-34.609374 15.523437-34.609374 34.609375v125.21875c0 19.082031 15.527343 34.609375 34.609374 34.609375h147.523438c19.082031 0 34.605469-15.527344 34.605469-34.609375v-125.21875c0-19.085938-15.523438-34.609375-34.605469-34.609375zm0 0" fill="#ffdf45"/><path d="m306.25 103.402344h-73.761719v194.4375h73.761719c19.082031 0 34.605469-15.527344 34.605469-34.609375v-125.21875c0-19.085938-15.523438-34.609375-34.605469-34.609375zm0 0" fill="#ffce00"/><path d="m255.824219 188.617188c0-12.890626-10.449219-23.339844-23.335938-23.339844-12.890625 0-23.339843 10.449218-23.339843 23.339844 0 7.175781 3.242187 13.589843 8.335937 17.875v13.464843c0 8.289063 6.71875 15.003907 15.003906 15.003907 8.285157 0 15.003907-6.714844 15.003907-15.003907v-13.464843c5.09375-4.28125 8.332031-10.699219 8.332031-17.875zm0 0" fill="#ffad36"/><path d="m247.492188 219.957031v-13.464843c5.09375-4.28125 8.332031-10.699219 8.332031-17.875 0-12.890626-10.449219-23.339844-23.335938-23.339844v69.683594c8.285157 0 15.003907-6.714844 15.003907-15.003907zm0 0" fill="#ffa100"/></svg>